<?xml version="1.0" encoding="utf-8"?>
<!-- Generator: Adobe Illustrator 27.5.0, SVG Export Plug-In . SVG Version: 6.00 Build 0)  -->
<svg version="1.1" xmlns="http://www.w3.org/2000/svg" xmlns:xlink="http://www.w3.org/1999/xlink" x="0px" y="0px"
	 viewBox="0 0 500 500" style="enable-background:new 0 0 500 500;" xml:space="preserve">
<g id="BACKGROUND">
	<rect style="fill:#FFFFFF;" width="500" height="500"/>
</g>
<g id="OBJECTS">
	<g>
		<circle style="fill-rule:evenodd;clip-rule:evenodd;fill:#F3DFE1;" cx="250.365" cy="239.006" r="201.242"/>
		<path style="fill-rule:evenodd;clip-rule:evenodd;fill:#FFFFFF;" d="M134.216,215.467c0,0-60.729-19.87-59.564-44.566
			c1.299-27.518,33.405-30.12,46.535-6.55c0,0,6.48-31.901,27.653-26.992C170.014,142.268,161.61,174.019,134.216,215.467z"/>
		<path style="fill-rule:evenodd;clip-rule:evenodd;fill:#FFFFFF;" d="M359.643,194.411c0,0-17.992-14.805-14.32-23.039
			c4.091-9.175,15.342-5.8,16.676,3.948c0,0,6.433-9.977,12.974-5.5C381.513,174.296,374.446,183.966,359.643,194.411z"/>
		<g>
			<path style="fill-rule:evenodd;clip-rule:evenodd;fill:#FF8888;" d="M247.903,117.858c0,0-14.851-12.221-11.82-19.017
				c3.377-7.573,12.664-4.787,13.765,3.259c0,0,5.31-8.235,10.709-4.54C265.954,101.254,260.121,109.236,247.903,117.858z"/>
			<path style="fill-rule:evenodd;clip-rule:evenodd;fill:#FF8888;" d="M234.186,126.442c0,0-6.601-2.783-6.242-5.531
				c0.4-3.062,4.011-3.055,5.26-0.3c0,0,1.02-3.504,3.34-2.759C238.864,118.595,237.63,122.065,234.186,126.442z"/>
			<path style="fill-rule:evenodd;clip-rule:evenodd;fill:#FF8888;" d="M255.782,131.137c0,0-3.649-3.196-2.832-4.886
				c0.91-1.883,3.23-1.108,3.445,0.929c0,0,1.403-2.035,2.735-1.061C260.462,127.091,258.929,129.058,255.782,131.137z"/>
		</g>
		<path style="fill-rule:evenodd;clip-rule:evenodd;fill:#FFFFFF;" d="M391.388,154.015c0,0-27.785-18.029-27.785-32.627
			c0-17.087,19.57-15.763,25.143,0.016c0,0,7.307-17.38,19.741-12.173C420.923,114.439,420.411,134.694,391.388,154.015z"/>
		<path style="fill-rule:evenodd;clip-rule:evenodd;fill:#FFFFFF;" d="M195.067,86.276c0,0-17.021-10.562-17.199-19.389
			c-0.209-10.332,11.641-9.771,15.204-0.298c0,0,4.206-10.598,11.788-7.602C212.442,61.984,212.38,74.238,195.067,86.276z"/>
		<path style="fill:#7E6ABA;" d="M151.945,416.052c0,0,21.286-128.9-2.691-146.679s-29.692,51.276-29.692,48.215
			s-8.889-106.428-34.923-117.959c-26.033-11.53-27.938,59.667-16.509,94.231c11.429,34.564,17.779,53.45,17.779,53.45
			s-25.398-42.213-42.542-27.374c-17.144,14.838,24.763,58.65,32.383,66.27c0,0-29.208-12.064-33.653,0
			c-4.445,12.064,36.828,32.064,36.828,32.064L151.945,416.052z"/>
		<path style="fill:#9486D1;" d="M46.331,388.321c0,0,34.288,26.245,51.855,32.594h37.886c0,0,14.392-111.964,8.043-143.923
			c0,0-4.656,100.763-11.853,139.805l-4.021,0.916c0,0-42.754-181.663-46.987-209.872c0,0,33.071,174.395,41.96,206.619l-1.27,2.699
			c0,0-66.671-79.528-74.766-95.243c0,0,35.716,58.099,70.956,95.402l-19.207,0.951C98.926,418.268,52.945,394.406,46.331,388.321z"
			/>
		<path style="fill:#7E6ABA;" d="M301.793,421.762c0,0-35.98-28.095-40.798-54.049c-4.818-25.955,32.633-8.237,32.633-8.237
			s-10.625-57.213,12.334-65.616c22.959-8.403,32.091,26.075,32.091,26.075s-3.776-111.784,34.321-121.493
			c38.097-9.709,6.985,109.882,6.985,109.882s27.303-64.567,59.051-54.934c31.748,9.633-46.352,111.352-46.352,111.352
			s46.352-43.195,63.496-31.502c17.144,11.692-11.731,38.361-38.097,57.409c-26.367,19.049-47.622,34.371-47.622,34.371
			L301.793,421.762z"/>
		<g>
			<path style="fill:#9486D1;" d="M348.311,415.604c71.605-115.149,83.38-154.421,83.38-154.421
				c-18.603,41.029-70.383,127.383-83.498,149.088l21.804-202.43c0,0-28.442,154.658-24.856,207.466l2.429,1.49
				c0.088-0.142,0.173-0.28,0.262-0.421l1.529,1.893c73.02-42.54,103.498-81.344,103.498-81.344
				C414.477,374.943,355.561,411.198,348.311,415.604z"/>
			<path style="fill:#9486D1;" d="M326.857,416.797l2.429-1.49c0,0-18.897-56.031-21.761-113.551
				C307.526,301.755,300.229,349.543,326.857,416.797z"/>
			<path style="fill:#9486D1;" d="M315.091,423.349l2.858-0.814c0,0-25.258-26.489-46.854-57.793
				C271.095,364.742,276.976,381.442,315.091,423.349z"/>
		</g>
		<ellipse style="fill-rule:evenodd;clip-rule:evenodd;fill:#9486D1;" cx="250.365" cy="425.02" rx="198.026" ry="21.762"/>
		<g>
			<path style="fill-rule:evenodd;clip-rule:evenodd;fill:#4C4F89;" d="M284.167,424.47c0,0,0.53-8.073-0.148-9.755
				c-0.678-1.682-11.843-3.198-11.843-3.198s-2.962,1.706-6.522,2.847c-3.56,1.141-6.252,1.631-7.389,2.376
				c-1.694,1.111-4.991,3.437-5.144,5.675C261.017,423.747,276.641,426.09,284.167,424.47z"/>
			<path style="fill-rule:evenodd;clip-rule:evenodd;fill:#EBB495;" d="M283.578,408.479l-10.913-1.909l-1.312,5.488
				c1.864,2.012,10.942,4.962,12.738,3.682L283.578,408.479z"/>
			<path style="fill-rule:evenodd;clip-rule:evenodd;fill:#5E5F9D;" d="M286.939,262.197c-10.619-2.376-11.075,2.086-11.075,2.086
				l-3.715,142.622c3.478,1.43,8.179,2.51,11.938,2.803l25.84-137.466C309.926,272.242,297.559,264.573,286.939,262.197z"/>
			<path style="fill-rule:evenodd;clip-rule:evenodd;fill:#4C4F89;" d="M293.368,264.141l-17.558,2.224l-0.332,12.732l13.048,4.745
				c3.896,1.417,6.326,5.304,5.893,9.427l-12.2,116.234c0.638,0.085,1.267,0.158,1.866,0.205l25.84-137.466
				C309.926,272.242,301.986,267.321,293.368,264.141z"/>
			<path style="fill-rule:evenodd;clip-rule:evenodd;fill:#4C4F89;" d="M346.224,426.847c8.889-1.046,19.646-2.241,19.422-6.126
				c-0.224-3.884-5.43-12.531-5.43-12.531l-13.824-0.763c0,0-4.663,6.12-14.577,8.625c-7.13,1.801-9.138,5.976-8.771,8.133
				c0.499,2.931,5.987,3.192,11.376,3.392C336.955,427.67,342.98,427.229,346.224,426.847z"/>
			<path style="fill-rule:evenodd;clip-rule:evenodd;fill:#EBB495;" d="M360.642,408.993l-4.781-9.039l-9.636,2.316l0.224,6.872
				C349.593,413.49,359.786,412.523,360.642,408.993z"/>
			<path style="fill-rule:evenodd;clip-rule:evenodd;fill:#332B28;" d="M179.115,177.407c2.68,10.027,9.584,12.254,9.584,12.254
				s23.573-4.383,29.228-8.997c0.164-0.134,0.325-0.267,0.482-0.399c5.386-4.509,6.402-12.486,2.102-18.04
				c-0.04-0.052-0.081-0.105-0.123-0.157c-4.127-5.23-3.928-5.14-5.29-9.645c-1.362-4.504,2.851-5.507,4.845-9.995
				c1.994-4.487,4.296-12.251-0.783-16.534c-3.012-2.539-6.684-1.412-6.684-1.412s-22.402-10.5-30.855,5.433
				c-6.175,11.641,2.628,22.397,0.513,29.344C180.021,166.207,176.435,167.379,179.115,177.407z"/>
			<path style="fill-rule:evenodd;clip-rule:evenodd;fill:#5E5F9D;" d="M353.057,403.237c4.258-1.195,4.856-2.167,4.856-2.167
				c-5.114-26.969-20.267-117.972-28.311-138.508c-2.097-5.353-8.815-8.217-17.928-6.574c-9.114,1.643-18.23,14.939-18.23,14.939
				l5.099-2.67c15.579,39.363,28.769,97.522,47.193,135.203C345.736,403.461,348.799,404.433,353.057,403.237z"/>
			<path style="fill-rule:evenodd;clip-rule:evenodd;fill:#4C4F89;" d="M299.078,264.141c-0.615,0.637-1.193,1.267-1.726,1.87
				l0.79,2.456l0.4-0.21c1.518,3.836,3.013,7.856,4.493,12.013c4.591,0.004,22.323,0.339,25.785,5.185
				c3.715,5.201,24.175,103.596,26.926,116.882c1.838-0.747,2.165-1.268,2.165-1.268c-4.994-26.334-19.558-113.71-27.73-136.93
				H299.078z"/>
			<path style="fill-rule:evenodd;clip-rule:evenodd;fill:#5E5F9D;" d="M277.214,202.872c0,0,9.742-21.258,8.846-29.177
				c-0.896-7.918-3.01-11.829-3.01-11.829l-46.921,54.676c0,0-2.251,10.023,3.277,10.322
				C244.932,227.163,277.214,202.872,277.214,202.872z"/>
			<path style="fill-rule:evenodd;clip-rule:evenodd;fill:#4C4F89;" d="M277.214,202.872c0,0,0.649-1.417,1.593-3.647l-2.407-5.843
				l-39.286,32.482c0.55,0.572,1.292,0.947,2.29,1.001C244.932,227.163,277.214,202.872,277.214,202.872z"/>
			<path style="fill-rule:evenodd;clip-rule:evenodd;fill:#5E5F9D;" d="M313.425,274.882c0,0,0.18-7.641,2.613-8.669
				c2.433-1.028,4.293,1.34,7.479,6.171c3.186,4.831,12.631,2.793,12.631,2.793l-10.469-53.267
				c14.299-48.215,4.801-61.342,2.786-62.937c-6.758-5.351-29.781-5.44-36.21-3.191c-7.476,2.615-12.316,7.865-13.366,12.263
				c-1.05,4.398-3.886,31.157-1.166,65.524l-5.573,41.529C277.008,279.482,313.425,274.882,313.425,274.882z"/>
			<path style="fill-rule:evenodd;clip-rule:evenodd;fill:#E5E6F9;" d="M294.197,157.467c0,0-7.522,24.885-4.021,48.308
				c0,0,14.002-42.738,22.14-51.15L294.197,157.467z"/>
			<path style="fill-rule:evenodd;clip-rule:evenodd;fill:#FFC3AE;" d="M236.901,211.607c-1.12-6.35-4.258-25.548-5.08-28.536
				c-0.822-2.988-3.1-5.416-6.76-7.283c-3.66-1.867-5.117-2.092-5.117-2.092s8.217,41.347,9.337,43.514
				c1.12,2.166,5.752,11.878,12.251,13.82c6.499,1.942,17.48-1.569,17.331-3.511c-0.149-1.942-20.916-8.964-20.916-8.964
				S238.022,217.956,236.901,211.607z"/>
			<path style="fill-rule:evenodd;clip-rule:evenodd;fill:#F4AF9A;" d="M258.769,227.888c-6.756-1.14-18.125-3.461-21.953-6.674
				c-5.578-4.681-7.994-33.466-7.994-33.466l-4.159,9.161c2.047,9.84,4.098,19.295,4.618,20.301
				c1.12,2.166,5.752,11.878,12.251,13.82C247.637,232.853,257.694,229.867,258.769,227.888z"/>
			<path style="fill-rule:evenodd;clip-rule:evenodd;fill:#332B28;" d="M275.151,117.349c1.419,7.918,6.713,10.797,6.713,10.797
				s0.907,1.902,7.033,6.833c6.126,4.93,21.439,11.28,21.439,11.28s6.947-7.545,8.441-13.521
				c2.87-11.482-1.507-29.714-16.584-26.444c-0.224-5.566-10.799-12.247-16.584-8.964c-5.528,3.137-2.689,11.205-2.689,11.205
				S273.732,109.431,275.151,117.349z"/>
			<path style="fill-rule:evenodd;clip-rule:evenodd;fill:#FF8888;" d="M269.322,426.424c0,0-4.929-98.17-15.387-137.911
				c-10.458-39.741-15.164-50.871-15.164-50.871s-27.266,0.336-33.616,0.971c-6.35,0.635-9.041,1.531-9.041,1.531
				s-16.583,34.026-27.938,58.08c-11.355,24.054-20.617,64.854-25.846,82.185c-5.229,17.331-7.321,39.143-7.321,39.143
				s13.147,14.044,61.255,14.343S269.322,426.424,269.322,426.424z"/>
			<g>
				<path style="fill:#EA5960;" d="M199.108,239.449c-7.314,14.832-28.646,61.451-43.505,128.209l0.62,0.138
					c14.987-67.339,36.567-114.162,43.661-128.486C199.61,239.357,199.351,239.403,199.108,239.449z"/>
				<path style="fill:#EA5960;" d="M235.358,282.502l0.631-0.069c-0.03-0.281-2.796-25.416-7.595-44.627
					c-0.216,0.004-0.433,0.008-0.652,0.012C232.553,256.999,235.328,282.221,235.358,282.502z"/>
				<path style="fill:#EA5960;" d="M249.978,285.443c-0.09-0.347-7.54-29.156-14.553-47.755c-0.216,0.003-0.441,0.007-0.674,0.01
					c7.019,18.54,14.522,47.555,14.612,47.903L249.978,285.443z"/>
				<path style="fill:#EA5960;" d="M200.374,264.235l-0.606-0.187c-10.25,33.217-24.937,131.333-30.225,167.976
					c0.207,0.03,0.42,0.059,0.629,0.089C175.457,395.482,190.136,297.411,200.374,264.235z"/>
				<path style="fill:#EA5960;" d="M232.357,432.492c0.026-31.853-0.668-143.935-11.356-186.282l-0.616,0.156
					c10.678,42.304,11.364,154.424,11.337,186.182C231.935,432.53,232.146,432.511,232.357,432.492z"/>
				<path style="fill:#EA5960;" d="M253.57,429.828c0.319-19.041,0.594-79.605-7.303-130.277l-0.628,0.098
					c7.906,50.731,7.614,111.396,7.294,130.286C253.149,429.898,253.359,429.863,253.57,429.828z"/>
				<path style="fill:#EA5960;" d="M198.075,433.9l2.915-66.159l-0.634-0.029l-2.916,66.185
					C197.652,433.899,197.865,433.9,198.075,433.9z"/>
				<path style="fill:#EA5960;" d="M212.945,238.197c-2.13,14.406-9.707,68.08-11.097,111.325l0.634,0.02
					c1.393-43.334,9.004-97.154,11.108-111.368C213.373,238.183,213.158,238.19,212.945,238.197z"/>
			</g>
			<path style="fill-rule:evenodd;clip-rule:evenodd;fill:#FFC3AE;" d="M310.636,149.022c-0.523-3.511-1.158-8.292-1.158-8.292
				s-1.345-0.859-2.876-0.261c-1.531,0.598-13.131,6.138-13.073,9.197c0.084,4.405,0.936,9.644,0.936,9.644
				c4.076,3.057,12.909,0.051,17.852-4.685C312.317,154.625,311.159,152.534,310.636,149.022z"/>
			<path style="fill-rule:evenodd;clip-rule:evenodd;fill:#F4AF9A;" d="M311.432,152.443c-0.291-0.898-0.592-2.049-0.796-3.42
				c-0.523-3.511-1.158-8.292-1.158-8.292s-1.345-0.859-2.876-0.261c-1.531,0.598-13.131,6.138-13.073,9.197
				c0.036,1.876,0.211,3.902,0.401,5.611C298.765,155.81,306.633,155.977,311.432,152.443z"/>
			<path style="fill-rule:evenodd;clip-rule:evenodd;fill:#FF8888;" d="M232.307,192.632c-2.988-8.217-9.524-17.256-11.055-18.638
				c-1.531-1.382-6.054-2.801-6.054-2.801s-12.446-1.44-21.35,0.812c-8.904,2.251-13.237,4.941-14.283,9.273
				c-1.046,4.333,0.597,18.003,2.763,23.68c2.167,5.677,8.068,15.687,9.488,20.543c1.419,4.856,2.913,8.068,2.913,8.068
				s19.572-6.499,27.416-8.665c7.844-2.167,11.13-4.557,11.13-4.557s-0.82-2.54-0.447-5.453
				C233.202,211.98,235.295,200.85,232.307,192.632z"/>
			<path style="fill-rule:evenodd;clip-rule:evenodd;fill:#E16567;" d="M196.114,240.143c0,0,6.91,0,12.886-0.859
				c5.976-0.859,27.816-11.126,27.816-11.126l-3.54-7.811l-0.364-1.638c0,0-5.349,1.228-8.823,2.236
				c-3.474,1.008-25.249,6.985-26.93,7.881c-1.681,0.896-3.39,2.438-3.39,2.438l0.756,1.844c0,0,0.804,2.851,1.103,4.383
				C195.927,239.022,196.114,240.143,196.114,240.143z"/>
			<path style="fill-rule:evenodd;clip-rule:evenodd;fill:#FFC3AE;" d="M203.395,181.633c5.976,1.307,9.412-0.486,10.197-3.66
				c0.785-3.175-1.345-4.632-2.764-6.126c-1.419-1.494-3.81-5.902-3.922-6.275c-0.433-1.443-10.696-9.816-14.531-8.091
				c0,0,1.383,3.721,1.719,7.941s-0.373,7.246-0.373,7.246S197.418,180.325,203.395,181.633z"/>
			<path style="fill-rule:evenodd;clip-rule:evenodd;fill:#F4AF9A;" d="M207.766,167.227c-0.481-0.858-0.82-1.521-0.86-1.656
				c-0.433-1.443-10.696-9.816-14.531-8.091c0,0,1.383,3.721,1.719,7.941c0.028,0.355,0.047,0.698,0.061,1.035
				C197.919,167.714,203.368,168.882,207.766,167.227z"/>
			<path style="fill-rule:evenodd;clip-rule:evenodd;fill:#FFC3AE;" d="M194.683,151.461l-0.298,3.443c0,0-1.669-3.473-2.687-4.784
				c-1.019-1.311-2.481-2.038-3.924-1.31c-1.443,0.728-0.868,3.942,0.933,6.493c1.8,2.552,5.186,2.482,5.186,2.482
				s0.479,0.972,2.698,3.811c2.219,2.839,6.956,5.073,11.818,3.195c4.862-1.878,5.255-8.076,5.349-15.307
				c0.093-7.231-2.441-18.039-2.441-18.039s-0.515-0.031-1.555-0.575c-1.04-0.544-1.964-1.591-1.964-1.591s0.059,0.408-1.849,3.943
				c-1.907,3.536-7.393,6.059-7.393,6.059s0.283,0.133-0.144,4.254C197.985,147.656,194.683,151.461,194.683,151.461z"/>
			<path style="fill-rule:evenodd;clip-rule:evenodd;fill:#FFC3AE;" d="M203.249,236.594c1.307,1.718,5.379,2.465,8.068,2.727
				c2.689,0.262,16.396,1.195,28.349-0.672c11.952-1.868,17.704-4.482,17.704-4.482s6.2,0.971,9.113-0.971
				c2.913-1.942,1.649-6.328,1.649-6.328s-4.338-3.158-5.757-3.233c-1.419-0.075-5.677,3.063-8.591,3.511
				c-2.913,0.448-14.94,0-24.801-1.345c-9.861-1.345-16.135-3.063-16.135-3.063c-2.363-6.681-19.781-50.874-29.584-46.543
				c-2.799,1.237-4.981,6.293-3.983,10.768c0.998,4.475,8.804,20.611,11.045,25.84C192.567,218.031,201.941,234.876,203.249,236.594
				z"/>
			<path style="fill-rule:evenodd;clip-rule:evenodd;fill:#F4AF9A;" d="M207.766,233.568c-9.369-2.818-26.145-40.187-26.145-40.187
				l0,0c2.776,6.621,7.123,15.732,8.704,19.42c2.241,5.229,11.616,22.075,12.923,23.792c1.307,1.718,5.379,2.465,8.068,2.727
				c2.689,0.262,16.396,1.195,28.349-0.672c11.952-1.868,17.704-4.482,17.704-4.482s0.947,0.146,2.27,0.211
				c0.12-0.897,0.126-1.445,0.126-1.445S217.135,236.386,207.766,233.568z"/>
			<path style="fill-rule:evenodd;clip-rule:evenodd;fill:#FFC3AE;" d="M286.394,118.432c-4.071,4.183-4.596,8.141-4.596,8.141
				s1.452,18.303,3.511,22.634c2.575,5.417,12.352,5.962,17.058,1.106c4.706-4.856,4.754-9.324,4.754-9.324s1.757,1.42,3.513,0.038
				c1.756-1.382,3.81-4.967,3.623-8.889c-0.187-3.922-2.801-4.744-4.482-2.279c-1.681,2.465-1.345,7.545-1.345,7.545l-1.83,0.299
				c0,0-0.485-5.602-0.224-7.395c0.262-1.793,0.299-2.054,0.299-2.054s-5.714-2.652-7.582-8.927c-1.868-6.275-1.382-6.91-1.382-6.91
				S290.466,114.249,286.394,118.432z"/>
			<path style="fill-rule:evenodd;clip-rule:evenodd;fill:#FFC3AE;" d="M264.406,239.103c3.959-1.494,8.889-4.295,9.449-5.789
				c0.56-1.494-0.187-6.35-1.606-8.068c-1.85-2.239-5.029-1.909-7.208-0.485c-1.83,1.195-7.672,9.406-7.672,9.406l-6.071,2.032
				c0,0,0.297,1.859,2.949,3.278C256.899,240.896,260.447,240.597,264.406,239.103z"/>
			
				<rect x="223.625" y="343.336" transform="matrix(0.0783 -0.9969 0.9969 0.0783 -79.907 600.8817)" style="fill:#4C4F89;" width="122.744" height="0.635"/>
			<path style="fill-rule:evenodd;clip-rule:evenodd;fill:#5E5F9D;" d="M323.529,225.956c0,0,4.772-10.669,7.47-27.191
				c2.698-16.522,3.709-31.82-1.271-38.471c-3.829-5.114-11.21-2.49-13.258,1.574c-5.29,10.5-8.518,36.831-8.628,50.792
				c0,0-3.063,1.195-12.177,3.81c-9.114,2.615-25.025,7.321-25.025,7.321l2.092,10.757c0,0,0,0,17.107-1.12
				C306.947,232.305,323.529,225.956,323.529,225.956z"/>
			<path style="fill-rule:evenodd;clip-rule:evenodd;fill:#4C4F89;" d="M331,198.764c2.544-15.574,3.585-30.056-0.474-37.238
				c0.16,10.815-6.029,56.705-13.391,61.447c-6.53,4.206-35.383,8.227-44.815,9.45l0.413,2.124c0,0,0,0,17.107-1.12
				c17.107-1.121,33.689-7.47,33.689-7.47S328.301,215.286,331,198.764z"/>
			<path style="fill:#4C4F89;" d="M278.902,221.685l-0.183-0.608l28.806-8.654c0.001-1.618,0.052-11.228,1.061-21.771
				c1.484-15.498,4.224-25.527,8.143-29.808l0.468,0.429c-9.145,9.989-9.039,50.972-9.037,51.385l0.001,0.237L278.902,221.685z"/>
			<polygon style="fill:#B6BAD8;" points="303.895,168.715 298.843,161.99 292.626,167.418 292.208,166.94 298.94,161.062 
				304.402,168.333 			"/>
			<path style="fill-rule:evenodd;clip-rule:evenodd;fill:#E16567;" d="M298.283,168.524l4.085-2.371l-3.476-4.628l-4.533,3.958
				l1.528,3.04l-6.303,15.346c-0.517,6.888-0.518,14.468,0.593,21.905c0,0,3.577-10.917,8.165-22.801L298.283,168.524z"/>
			<path style="fill:#4C4F89;" d="M276.293,199.628c-1.075-11.725,2.249-31.439,2.283-31.637l0.626,0.107
				c-0.034,0.197-3.343,19.83-2.276,31.472L276.293,199.628z"/>
			<polygon style="fill:#4C4F89;" points="302.193,179.61 301.693,179.217 313.918,163.676 312.013,157.339 312.621,157.156 
				314.621,163.81 			"/>
			<polygon style="fill:#4C4F89;" points="287.917,214.916 287.39,214.562 306.301,186.393 303.84,176.688 304.456,176.532 
				306.986,186.512 			"/>
			<polygon style="fill:#4C4F89;" points="287.58,184.682 284.394,173.672 284.441,173.566 290.748,159.365 291.328,159.622 
				285.068,173.718 288.19,184.505 			"/>
			<polygon style="fill:#4C4F89;" points="287.346,208.446 281.456,186.268 285.849,179.245 286.387,179.582 282.141,186.371 
				287.96,208.283 			"/>
			<path style="fill:#4C4F89;" d="M285.801,274.783c-1.125-20.497-0.012-42.566,0-42.786l0.634,0.033
				c-0.011,0.22-1.123,22.256,0,42.719L285.801,274.783z"/>
			
				<rect x="315.849" y="226.768" transform="matrix(0.9946 -0.1035 0.1035 0.9946 -23.6668 34.0338)" style="fill:#4C4F89;" width="0.635" height="36.675"/>
			<path style="fill:#E8907C;" d="M208.977,154.719c-0.101,0-0.2-0.048-0.262-0.137c-0.099-0.144-0.063-0.342,0.081-0.441
				c1.354-0.932,1.411-1.838,1.324-2.296c-0.102-0.538-0.504-0.992-0.978-1.103c-1.346-0.314-1.729-3.793-1.792-4.487
				c-0.016-0.175,0.113-0.329,0.287-0.345c0.177-0.016,0.329,0.113,0.345,0.287c0.136,1.493,0.645,3.773,1.304,3.926
				c0.722,0.168,1.308,0.813,1.457,1.603c0.196,1.036-0.383,2.106-1.588,2.936C209.102,154.701,209.039,154.719,208.977,154.719z"/>
			<path style="fill:#E8907C;" d="M208.479,159.364c-1.437,0-2.678-0.765-2.741-0.804c-0.148-0.093-0.193-0.289-0.1-0.437
				c0.093-0.148,0.289-0.193,0.437-0.101c0.016,0.01,1.645,1.009,3.161,0.614c0.756-0.197,1.37-0.716,1.825-1.541
				c0.085-0.154,0.277-0.209,0.431-0.125c0.154,0.085,0.21,0.278,0.125,0.431c-0.543,0.986-1.292,1.608-2.225,1.85
				C209.085,159.331,208.777,159.364,208.479,159.364z"/>
			<path style="fill-rule:evenodd;clip-rule:evenodd;fill:#332B28;" d="M212.535,146.763c0.121,0.876-0.186,1.641-0.685,1.71
				c-0.499,0.069-1.002-0.585-1.123-1.461c-0.121-0.876,0.186-1.641,0.685-1.71C211.912,145.234,212.414,145.888,212.535,146.763z"
				/>
			<path style="fill-rule:evenodd;clip-rule:evenodd;fill:#F9A19D;" d="M212.476,149.641c0.87-0.159,1.648,0.114,1.739,0.609
				c0.091,0.496-0.54,1.027-1.41,1.186c-0.87,0.159-1.648-0.114-1.739-0.609C210.975,150.331,211.607,149.8,212.476,149.641z"/>
			<path style="fill-rule:evenodd;clip-rule:evenodd;fill:#F9A19D;" d="M203.298,150.956c0.87-0.159,1.648,0.114,1.739,0.609
				c0.091,0.496-0.54,1.027-1.41,1.186c-0.869,0.159-1.648-0.114-1.739-0.61C201.797,151.647,202.428,151.115,203.298,150.956z"/>
			<path style="fill-rule:evenodd;clip-rule:evenodd;fill:#332B28;" d="M204.366,148.022c0.121,0.876-0.186,1.641-0.685,1.71
				c-0.499,0.069-1.002-0.585-1.123-1.461c-0.121-0.876,0.186-1.641,0.685-1.71C203.743,146.492,204.245,147.146,204.366,148.022z"
				/>
			<path style="fill:#332B28;" d="M209.066,144.147c-0.024,0-0.047-0.003-0.071-0.008c-0.171-0.039-0.278-0.209-0.239-0.379
				c0.021-0.093,0.539-2.284,2.505-2.775c0.948-0.24,2.273,0.307,2.755,1.602c0.061,0.164-0.023,0.347-0.187,0.408
				c-0.164,0.06-0.347-0.023-0.408-0.187c-0.396-1.065-1.429-1.35-2.006-1.207c-1.583,0.396-2.036,2.281-2.04,2.3
				C209.341,144.047,209.211,144.147,209.066,144.147z"/>
			<path style="fill:#332B28;" d="M199.553,146.09c-0.007,0-0.014,0-0.022-0.001c-0.175-0.012-0.307-0.163-0.295-0.338
				c0.008-0.118,0.217-2.895,2.423-3.561c2.233-0.675,3.937,2.107,4.009,2.226c0.09,0.15,0.042,0.345-0.108,0.435
				c-0.15,0.09-0.345,0.042-0.436-0.107c-0.015-0.025-1.522-2.474-3.282-1.946c-1.783,0.538-1.971,2.971-1.973,2.995
				C199.858,145.961,199.719,146.09,199.553,146.09z"/>
			<path style="fill:#E8907C;" d="M289.021,141.279c-0.045,0-0.091-0.01-0.135-0.03c-1.323-0.625-2.067-1.588-2.04-2.642
				c0.021-0.804,0.495-1.534,1.181-1.817c0.626-0.258,0.76-2.59,0.654-4.085c-0.013-0.175,0.119-0.327,0.294-0.339
				c0.174-0.02,0.327,0.119,0.339,0.294c0.05,0.695,0.232,4.191-1.045,4.717c-0.45,0.185-0.774,0.698-0.788,1.245
				c-0.012,0.465,0.191,1.35,1.676,2.052c0.159,0.075,0.226,0.264,0.152,0.423C289.254,141.212,289.14,141.279,289.021,141.279z"/>
			<path style="fill-rule:evenodd;clip-rule:evenodd;fill:#E8907C;" d="M292.619,143.965c0,0-2.818,3.196-5.504,0.546
				L292.619,143.965z"/>
			<path style="fill:#332B28;" d="M298.364,127.81c0.007-0.002,0.014-0.005,0.021-0.007c0.163-0.065,0.242-0.249,0.177-0.412
				c-0.043-0.11-1.095-2.688-3.399-2.645c-2.332,0.044-3.1,3.214-3.132,3.349c-0.04,0.171,0.066,0.341,0.236,0.381
				c0.17,0.039,0.342-0.066,0.382-0.236c0.006-0.028,0.689-2.822,2.526-2.86c1.862-0.035,2.788,2.222,2.797,2.245
				C298.035,127.781,298.207,127.861,298.364,127.81z"/>
			<path style="fill:#332B28;" d="M288.807,128.654c0.007-0.002,0.014-0.005,0.02-0.007c0.163-0.065,0.242-0.249,0.178-0.412
				c-0.044-0.11-1.095-2.689-3.399-2.645c-2.332,0.043-3.1,3.214-3.132,3.349c-0.04,0.171,0.066,0.341,0.236,0.381
				c0.17,0.04,0.342-0.066,0.382-0.236c0.006-0.028,0.688-2.822,2.526-2.86c1.862-0.035,2.788,2.222,2.797,2.245
				C288.478,128.625,288.65,128.704,288.807,128.654z"/>
			<path style="fill-rule:evenodd;clip-rule:evenodd;fill:#F7F0E4;" d="M186.96,146.888c0,0-2.238-23.101,6.81-25.8l5.653-0.696
				c1.25,0,1.237,0.617,0.937,0.847C197.519,123.421,188.822,130.761,186.96,146.888z"/>
			<path style="fill:#332B28;" d="M294.993,132.771c0,0.935-0.509,1.693-1.137,1.693c-0.628,0-1.137-0.758-1.137-1.693
				c0-0.935,0.509-1.693,1.137-1.693C294.484,131.078,294.993,131.836,294.993,132.771z"/>
			<path style="fill:#332B28;" d="M285.746,133.565c0,0.935-0.509,1.693-1.137,1.693s-1.137-0.758-1.137-1.693
				c0-0.935,0.509-1.693,1.137-1.693S285.746,132.63,285.746,133.565z"/>
		</g>
	</g>
</g>
</svg>
