<svg width="546" height="212" viewBox="0 0 546 212" fill="none" xmlns="http://www.w3.org/2000/svg">
<path fill-rule="evenodd" clip-rule="evenodd" d="M414.056 47.9873L336.606 100.884L289.875 51.3427C276.657 70.4882 238.49 103.055 206.281 103.055C135.533 101.476 94.946 -9.44909 0.367188 95.1602C19.3574 34.3684 45.7948 9.49901 95.6907 7.1305C166.997 21.7363 220.431 105.819 296.205 0.814453L347.777 55.0929L426.53 3.97249L481.639 69.6987L545.499 12.0649L545.126 52.7244L471.772 111.74L414.056 47.9873Z" fill="#E9EEF2"/>
<path fill-rule="evenodd" clip-rule="evenodd" d="M414.056 147.269L336.606 200.165L289.875 150.624C276.657 169.769 238.49 202.337 206.281 202.337C135.533 200.757 94.946 89.8322 0.367188 194.441C19.3574 133.65 45.7948 108.78 95.6907 106.412C166.997 121.018 220.431 205.1 296.205 100.096L347.777 154.374L426.53 103.254L481.639 168.98L545.499 111.346L545.126 152.006L471.772 211.021L414.056 147.269Z" fill="#E9EEF2"/>
</svg>
