<svg width="613" height="466" viewBox="0 0 613 466" fill="none" xmlns="http://www.w3.org/2000/svg">
<path fill-rule="evenodd" clip-rule="evenodd" d="M403.784 0C217.256 26.8813 79.5124 106.093 15.1843 255.719C-12.5557 317.981 -2.90364 397.496 49.2279 436.632C140.818 491.185 261.46 429.253 273.422 350.981C293.749 224.283 155.044 194.415 62.019 269.722L59.1959 271.369C21.1729 193.097 261.533 39.1096 354.797 45.4346L403.784 0ZM494.789 3.29427C424.509 0.404976 354.643 56.1916 339.678 115.572C326.526 171.706 331.813 213.978 390.163 235.128C462.861 250.743 537.212 228.391 557.06 185.301C510.667 307.057 409.56 405.885 249.337 422.488C245.511 428.813 202.486 463.826 207.987 466C406.232 428.841 704.884 240.254 585.793 48.7254C558.74 17.9652 526.738 4.60759 494.789 3.29427ZM491.966 41.0414C497.573 41.5132 502.997 42.5192 508.406 44.1984C551.682 57.6325 569.854 105.889 548.927 151.947C528 198.006 475.953 224.54 432.679 211.108C389.406 197.676 371.232 149.418 392.159 103.359C410.471 63.0583 452.715 37.7428 491.966 41.0414ZM167.636 257.093C173.261 257.393 178.762 258.325 184.243 259.838C228.089 271.944 248.438 319.689 229.579 366.353C210.72 413.018 159.836 441.05 115.989 428.944C72.1413 416.839 51.7934 369.094 70.6523 322.429C87.1539 281.598 128.263 254.989 167.636 257.093Z" fill="#E9EEF2"/>
</svg>
