<svg width="489" height="592" viewBox="0 0 489 592" fill="none" xmlns="http://www.w3.org/2000/svg">
<path fill-rule="evenodd" clip-rule="evenodd" d="M488.998 0C343.592 14.8 196.781 29.1887 51.0036 29.1887C41.5206 48.922 36.242 107.745 32.1513 133.201C107.457 82.2889 246.169 70.576 334.305 75.5094C255.466 167.269 186.379 252.719 170.574 383.156C99.9164 432.687 46.8571 505.88 0 580.078L7.6186 592C7.6186 592 148.182 435.839 180.907 415.909C209.542 472.346 219.03 534.335 312.744 567.881C393.256 582.484 455.133 551.694 457.364 477.301C463.129 435.269 450.304 398.013 421.855 366.439C368.676 311.383 290.671 318.592 228.939 346.021C202.721 289.781 460.363 36.704 488.998 0ZM302.929 367.259C323.651 366.395 347.137 373.41 368.397 388.5C410.911 418.68 428.592 469.701 407.909 502.515C387.226 535.329 336.02 537.49 293.502 507.312C250.983 477.133 233.178 425.975 253.86 393.161C264.201 376.754 282.207 368.123 302.929 367.259Z" fill="#E9EEF2"/>
</svg>
