<svg width="515" height="494" viewBox="0 0 515 494" fill="none" xmlns="http://www.w3.org/2000/svg">
<path fill-rule="evenodd" clip-rule="evenodd" d="M297.15 0.00624285C142.953 0.565333 6.60467 129.85 110.849 247.896C95.3064 258.175 -30.0847 314.698 6.73754 415.9C56.7138 576.204 463.535 480.22 160.328 214.954C35.7437 117.705 162.671 26.553 290.837 54.2242C574.91 140.009 264.117 390.017 481.957 490.428C491.043 464.534 505.435 437.949 515 412.053C308.641 443.678 605.578 79.3348 328.2 1.64892C317.828 0.499989 307.43 -0.0354708 297.15 0.0018195V0.00624285ZM152.358 290.58C157.234 290.59 162.083 291.156 166.804 292.365C204.57 302.038 221.055 347.931 203.5 394.757C185.945 441.583 140.977 471.824 103.209 462.152C65.4406 452.48 48.958 406.585 66.5126 359.759C81.8717 318.785 118.226 290.51 152.358 290.58Z" fill="#E9EEF2"/>
</svg>
