<svg width="718" height="230" viewBox="0 0 718 230" fill="none" xmlns="http://www.w3.org/2000/svg">
<path fill-rule="evenodd" clip-rule="evenodd" d="M0 0C3.11131 48.4179 10.5373 119.847 2.16067 161.967C60.5576 128.901 221.536 136.763 280.879 143.651C281.836 270.01 445.652 248.661 419.325 138.047C483.706 131.552 665.818 118.266 718 160.19C710.102 107.442 711.186 55.2678 711.186 2.33071C594.87 36.5775 89.0239 41.3329 0 0ZM53.0186 48.249C282.909 59.4464 416.765 58.4954 658 48.249C658.001 66.5347 658 80.8392 658 99.1249C413.901 91.3053 282.626 91.0695 53.0186 99.1249V48.249Z" fill="#E9EEF2"/>
</svg>
