<svg width="501" height="592" viewBox="0 0 501 592" fill="none" xmlns="http://www.w3.org/2000/svg">
<path fill-rule="evenodd" clip-rule="evenodd" d="M10.245 577.605C84.6118 521.167 140.899 444.995 153.201 314.355C141.645 209.371 87.7804 121.959 0 39.6678C7.08255 31.9717 54.0509 3.94985 54.7965 3.94985C125.622 92.5541 178.741 194.978 208.57 288.115C235.968 287.72 264.671 289.299 292.442 288.904C302.693 191.815 356.744 65.3232 415.082 0L473.233 34.534C400.73 98.4711 334.751 198.914 348.357 310.013C361.59 433.941 454.409 527.472 501 573.45L447.135 592C394.762 558.453 323.75 445.379 297.471 331.515C296.726 326.582 213.972 327.766 204.466 329.739C189.556 447.352 113.325 573.645 68.5931 591.405L10.2553 577.591L10.245 577.605Z" fill="#E9EEF2"/>
</svg>
