<svg width="717" height="582" viewBox="0 0 717 582" fill="none" xmlns="http://www.w3.org/2000/svg">
<path fill-rule="evenodd" clip-rule="evenodd" d="M63.813 582C43.976 565.033 21.271 549.447 0 533.072C21.749 524.392 126.909 454.354 143.639 430.088C122.607 402.073 53.5358 349.199 20.7928 353.737C38.4788 334.6 70.5048 311.123 93.9268 298.891C103.248 333.614 142.922 363.799 183.074 396.351C217.49 368.731 615.425 57.015 614.947 54.0556C567.386 61.7499 518.63 76.3493 479.912 87.3974L478.478 35.5105C512.416 35.5105 642.671 16.5707 717 0C693.1 63.1308 673.502 169.272 675.892 203.995C655.338 204.784 634.306 201.233 612.796 199.457L649.124 79.5057C619.727 88.1864 291.58 380.568 220.836 427.72C251.667 454.354 319.782 512.357 360.651 516.5C354.198 529.719 292.775 573.319 292.775 567.401C282.259 538.005 219.641 481.383 186.42 463.035C156.306 468.559 77.914 558.72 63.813 582Z" fill="#E9EEF2"/>
</svg>
