<svg width="598" height="441" viewBox="0 0 598 441" fill="none" xmlns="http://www.w3.org/2000/svg">
<path fill-rule="evenodd" clip-rule="evenodd" d="M349.232 406.098C293.738 327.25 310.003 116.395 310.003 65.0153C280.582 58.2964 267.186 52.1702 232.742 63.4342C232.742 143.863 233.698 235.162 233.698 315.986L260.25 342.071C234.177 354.521 225.805 363.611 215.758 386.93L155.241 347.604L174.138 315.591L173.42 61.8534C133.234 56.913 118.165 57.9011 97.3544 72.9198L98.072 321.124L119.361 351.557C98.0719 360.845 88.2647 373.294 75.1087 393.253L23.6807 353.928L42.0992 321.914L43.0559 68.9675C31.0959 67.3866 10.0464 65.0152 0 61.4581C16.5048 45.0561 27.5081 30.235 36.3585 10.4735C58.1257 20.5519 79.4143 25.4922 106.205 24.1089C105.248 25.6898 101.899 36.9538 100.225 49.4035C115.294 36.5586 125.58 19.7614 136.583 4.1498C163.852 10.4735 192.317 12.4496 224.848 8.10207C221.499 20.5518 220.543 28.0612 223.891 38.93C234.655 26.2827 244.701 13.2402 254.987 0C295.173 9.68313 336.315 12.2519 375.544 6.91634C352.342 110.269 354.494 592.844 531.024 325.867L462.374 361.635L456.872 327.448C506.386 299.584 549.921 274.092 598 246.821C596.086 272.115 597.522 351.952 598 378.828L560.206 397.601C561.163 383.966 564.512 348 560.206 335.945C513.562 401.949 441.803 491.27 349.232 406.098Z" fill="#E9EEF2"/>
</svg>
