<svg width="690" height="520" viewBox="0 0 690 520" fill="none" xmlns="http://www.w3.org/2000/svg">
<path fill-rule="evenodd" clip-rule="evenodd" d="M602.611 0.0130116C576.713 0.308969 554.037 7.50529 534.659 30.2936C349.958 290.933 319.579 212.389 136.075 34.815C74.8266 -13.3274 19.14 30.7318 0 74.1391L44.527 109.216C53.14 -21.5976 204.952 205.132 276.966 226.638C197.774 240.647 152.668 318.92 170.133 401.196C199.561 570.286 509.665 552.13 535.983 389.55C544.596 336.869 522.831 269.058 430.479 221.705C531.682 188.952 552.73 -21.5371 673.551 69.6134C681.686 50.2775 683.78 30.3225 690 11.3821C657.701 6.35083 628.508 -0.285986 602.605 0.00953262L602.611 0.0130116ZM349.905 241.163C425.354 241.163 486.644 297.601 486.644 367.219C486.644 436.837 425.354 493.411 349.905 493.411C274.456 493.411 213.331 436.833 213.331 367.219C213.331 297.606 274.456 241.163 349.905 241.163Z" fill="#E9EEF2"/>
</svg>
