<svg width="709" height="592" viewBox="0 0 709 592" fill="none" xmlns="http://www.w3.org/2000/svg">
<path fill-rule="evenodd" clip-rule="evenodd" d="M383.574 0C359.413 6.31453 331.333 53.2463 305.498 68.2433L299.85 29.7361C263.967 29.1441 223.506 19.8202 187.385 13.7027C171.118 29.0942 150.273 54.2655 128.744 64.132L140.206 23.4325C111.261 16.3286 76.2886 12.1791 47.3437 6.85062L0 69.7488C11.9607 74.8793 48.2007 81.8077 56.8124 81.8077V398.498L31.5612 437.278L97.1794 478.251L157.149 434.674L129.905 396.579V83.4626L198.845 78.6663L227.252 103.196V404.814L207.649 431.946L274.43 479.908C293.567 454.847 306.789 448.066 331.907 427.15L292.868 402.347L294.363 104.162L335.726 70.1782L394.699 82.7852L394.201 407.415L363.967 423.037L318.283 495.665C349.86 491.323 383.076 474.101 415.131 467.984L414.633 592L504.006 560.62C499.461 536.151 484.969 485.563 482.577 458.529C497.887 446.098 631.594 474.508 651.688 481.413C668.673 456.944 683.165 439.135 709 420.981C681.969 312.647 675.531 164.189 691.557 14.8094C643.475 21.5186 565.299 19.293 527.264 6.86129C514.107 27.5808 496.471 58.8955 477.095 76.0631L481.746 19.8788C445.386 16.3269 418.26 11.0501 383.574 0ZM536.737 55.4992C570.909 59.7071 600.089 60.4325 628.768 60.4325C615.846 129.751 617.266 337.486 637.074 397.539L613.984 427.687L458.66 409.598L460.155 137.858L536.737 55.4992Z" fill="#E9EEF2"/>
</svg>
